<?xml version="1.0" encoding="UTF-8"?>
<!DOCTYPE svg PUBLIC "-//W3C//DTD SVG 1.1//EN" "http://www.w3.org/Graphics/SVG/1.1/DTD/svg11.dtd">
<svg xmlns="http://www.w3.org/2000/svg" version="1.1" width="512px" height="512px" style="shape-rendering:geometricPrecision; text-rendering:geometricPrecision; image-rendering:optimizeQuality; fill-rule:evenodd; clip-rule:evenodd" xmlns:xlink="http://www.w3.org/1999/xlink">
<g><path style="opacity:0.998" fill="#f9d12d" d="M 232.5,-0.5 C 247.833,-0.5 263.167,-0.5 278.5,-0.5C 291.819,1.16531 305.152,3.49865 318.5,6.5C 285.252,41.2495 251.418,75.5829 217,109.5C 216.536,110.094 216.369,110.761 216.5,111.5C 209.167,116.833 202.833,123.167 197.5,130.5C 133.833,192.498 70.5,255.498 7.5,319.5C 3.64784,306.052 0.981176,292.385 -0.5,278.5C -0.5,263.167 -0.5,247.833 -0.5,232.5C -0.166667,232.5 0.166667,232.5 0.5,232.5C 78.1667,155.5 155.5,78.1667 232.5,0.5C 232.5,0.166667 232.5,-0.166667 232.5,-0.5 Z"/></g>
<g><path style="opacity:0.992" fill="#f8d62f" d="M 232.5,0.5 C 155.5,78.1667 78.1667,155.5 0.5,232.5C 10.5814,142.639 54.5814,75.1395 132.5,30C 163.736,13.0247 197.07,3.19133 232.5,0.5 Z"/></g>
<g><path style="opacity:0.998" fill="#f9cd2c" d="M 318.5,6.5 C 328.699,9.23314 338.699,12.5665 348.5,16.5C 322.252,44.2492 295.419,71.5825 268,98.5C 267.536,99.0944 267.369,99.7611 267.5,100.5C 248.992,97.4157 231.992,101.082 216.5,111.5C 216.369,110.761 216.536,110.094 217,109.5C 251.418,75.5829 285.252,41.2495 318.5,6.5 Z"/></g>
<g><path style="opacity:0.999" fill="#fac92b" d="M 348.5,16.5 C 364.539,22.3519 379.539,30.0186 393.5,39.5C 365.5,68.1667 337.167,96.5 308.5,124.5C 297.808,111.646 284.142,103.646 267.5,100.5C 267.369,99.7611 267.536,99.0944 268,98.5C 295.419,71.5825 322.252,44.2492 348.5,16.5 Z"/></g>
<g><path style="opacity:0.998" fill="#fac429" d="M 393.5,39.5 C 412.241,50.8969 428.907,64.8969 443.5,81.5C 415.085,111.416 386.085,140.916 356.5,170C 355.906,170.464 355.239,170.631 354.5,170.5C 340.092,156.424 325.759,142.424 311.5,128.5C 310.5,127.167 309.5,125.833 308.5,124.5C 337.167,96.5 365.5,68.1667 393.5,39.5 Z"/></g>
<g><path style="opacity:0.997" fill="#fabe27" d="M 443.5,81.5 C 459.212,97.8839 472.212,116.217 482.5,136.5C 455.701,162.798 429.035,189.298 402.5,216C 401.906,216.464 401.239,216.631 400.5,216.5C 396.526,212.862 392.526,209.195 388.5,205.5C 377.833,194.167 366.833,183.167 355.5,172.5C 355.167,171.833 354.833,171.167 354.5,170.5C 355.239,170.631 355.906,170.464 356.5,170C 386.085,140.916 415.085,111.416 443.5,81.5 Z"/></g>
<g><path style="opacity:1" fill="#fefefe" d="M 267.5,100.5 C 284.142,103.646 297.808,111.646 308.5,124.5C 309.5,125.833 310.5,127.167 311.5,128.5C 322.406,143.799 326.239,160.799 323,179.5C 312.558,219.916 286.391,238.749 244.5,236C 233.169,233.665 222.836,229.165 213.5,222.5C 213.167,221.5 212.5,220.833 211.5,220.5C 199.107,209.378 191.107,195.711 187.5,179.5C 185.366,161.949 188.699,145.615 197.5,130.5C 202.833,123.167 209.167,116.833 216.5,111.5C 231.992,101.082 248.992,97.4157 267.5,100.5 Z"/></g>
<g><path style="opacity:0.999" fill="#f9cd2c" d="M 197.5,130.5 C 188.699,145.615 185.366,161.949 187.5,179.5C 131.035,235.465 74.7013,291.632 18.5,348C 17.9056,348.464 17.2389,348.631 16.5,348.5C 12.497,339.157 9.49697,329.49 7.5,319.5C 70.5,255.498 133.833,192.498 197.5,130.5 Z"/></g>
<g><path style="opacity:0.998" fill="#fbb926" d="M 482.5,136.5 C 491.637,153.229 498.637,170.896 503.5,189.5C 482.035,210.465 460.701,231.632 439.5,253C 438.906,253.464 438.239,253.631 437.5,253.5C 427.22,243.555 416.887,233.555 406.5,223.5C 404.5,221.167 402.5,218.833 400.5,216.5C 401.239,216.631 401.906,216.464 402.5,216C 429.035,189.298 455.701,162.798 482.5,136.5 Z"/></g>
<g><path style="opacity:1" fill="#db941e" d="M 311.5,128.5 C 325.759,142.424 340.092,156.424 354.5,170.5C 354.833,171.167 355.167,171.833 355.5,172.5C 355.631,173.239 355.464,173.906 355,174.5C 325.298,204.035 295.798,233.701 266.5,263.5C 262.167,263.5 257.833,263.5 253.5,263.5C 240.118,249.786 226.785,236.119 213.5,222.5C 222.836,229.165 233.169,233.665 244.5,236C 286.391,238.749 312.558,219.916 323,179.5C 326.239,160.799 322.406,143.799 311.5,128.5 Z"/></g>
<g><path style="opacity:1" fill="#e0991d" d="M 355.5,172.5 C 366.833,183.167 377.833,194.167 388.5,205.5C 365.535,228.965 342.368,252.299 319,275.5C 318.536,276.094 318.369,276.761 318.5,277.5C 301.789,270.146 284.456,265.479 266.5,263.5C 295.798,233.701 325.298,204.035 355,174.5C 355.464,173.906 355.631,173.239 355.5,172.5 Z"/></g>
<g><path style="opacity:0.999" fill="#fac92b" d="M 187.5,179.5 C 191.107,195.711 199.107,209.378 211.5,220.5C 154.882,278.784 97.5491,336.451 39.5,393.5C 30.0186,379.539 22.3519,364.539 16.5,348.5C 17.2389,348.631 17.9056,348.464 18.5,348C 74.7013,291.632 131.035,235.465 187.5,179.5 Z"/></g>
<g><path style="opacity:0.992" fill="#fcb324" d="M 503.5,189.5 C 507.155,203.775 509.821,218.109 511.5,232.5C 511.5,247.833 511.5,263.167 511.5,278.5C 510.138,291.005 507.804,303.339 504.5,315.5C 503.542,315.953 502.708,316.619 502,317.5C 497.298,312.63 492.465,307.963 487.5,303.5C 484.126,299.124 480.126,295.458 475.5,292.5C 466.5,282.833 457.167,273.5 447.5,264.5C 444.167,260.833 440.833,257.167 437.5,253.5C 438.239,253.631 438.906,253.464 439.5,253C 460.701,231.632 482.035,210.465 503.5,189.5 Z"/></g>
<g><path style="opacity:1" fill="#e49e1e" d="M 388.5,205.5 C 392.526,209.195 396.526,212.862 400.5,216.5C 402.5,218.833 404.5,221.167 406.5,223.5C 384.833,245.833 362.833,267.833 340.5,289.5C 333.194,285.512 325.86,281.512 318.5,277.5C 318.369,276.761 318.536,276.094 319,275.5C 342.368,252.299 365.535,228.965 388.5,205.5 Z"/></g>
<g><path style="opacity:0.998" fill="#fac52a" d="M 211.5,220.5 C 212.5,220.833 213.167,221.5 213.5,222.5C 226.785,236.119 240.118,249.786 253.5,263.5C 200.426,265.611 159.259,288.611 130,332.5C 125.531,339.771 121.865,347.438 119,355.5C 116.253,371.41 120.086,385.41 130.5,397.5C 114.419,412.079 98.752,427.245 83.5,443C 82.9056,443.464 82.2389,443.631 81.5,443.5C 64.8969,428.907 50.8969,412.241 39.5,393.5C 97.5491,336.451 154.882,278.784 211.5,220.5 Z"/></g>
<g><path style="opacity:1" fill="#eaa320" d="M 406.5,223.5 C 416.887,233.555 427.22,243.555 437.5,253.5C 440.833,257.167 444.167,260.833 447.5,264.5C 424.833,286.5 402.5,308.833 380.5,331.5C 369.583,315.249 356.25,301.249 340.5,289.5C 362.833,267.833 384.833,245.833 406.5,223.5 Z"/></g>
<g><path style="opacity:1" fill="#fefefe" d="M 253.5,263.5 C 257.833,263.5 262.167,263.5 266.5,263.5C 284.456,265.479 301.789,270.146 318.5,277.5C 325.86,281.512 333.194,285.512 340.5,289.5C 356.25,301.249 369.583,315.249 380.5,331.5C 385.121,339.078 388.955,347.078 392,355.5C 392.5,361.825 392.666,368.158 392.5,374.5C 387.468,393.532 375.468,405.532 356.5,410.5C 337.527,411.449 318.527,411.782 299.5,411.5C 282.833,411.5 266.167,411.5 249.5,411.5C 218.165,411.667 186.832,411.5 155.5,411C 149.673,409.895 144.34,407.728 139.5,404.5C 136.214,402.549 133.214,400.215 130.5,397.5C 120.086,385.41 116.253,371.41 119,355.5C 121.865,347.438 125.531,339.771 130,332.5C 159.259,288.611 200.426,265.611 253.5,263.5 Z"/></g>
<g><path style="opacity:1" fill="#f0a621" d="M 447.5,264.5 C 457.167,273.5 466.5,282.833 475.5,292.5C 447.833,319.833 420.167,347.167 392.5,374.5C 392.666,368.158 392.5,361.825 392,355.5C 388.955,347.078 385.121,339.078 380.5,331.5C 402.5,308.833 424.833,286.5 447.5,264.5 Z"/></g>
<g><path style="opacity:0.997" fill="#f4a821" d="M 475.5,292.5 C 480.126,295.458 484.126,299.124 487.5,303.5C 418.754,373.246 349.421,442.246 279.5,510.5C 278.833,510.5 278.5,510.833 278.5,511.5C 271.167,511.5 263.833,511.5 256.5,511.5C 289.833,477.833 323.167,444.167 356.5,410.5C 375.468,405.532 387.468,393.532 392.5,374.5C 420.167,347.167 447.833,319.833 475.5,292.5 Z"/></g>
<g><path style="opacity:0.998" fill="#f8a921" d="M 487.5,303.5 C 492.465,307.963 497.298,312.63 502,317.5C 502.708,316.619 503.542,315.953 504.5,315.5C 487.576,383.577 449.576,436.41 390.5,474C 356.395,494.868 319.395,507.035 279.5,510.5C 349.421,442.246 418.754,373.246 487.5,303.5 Z"/></g>
<g><path style="opacity:0.994" fill="#fbbe27" d="M 130.5,397.5 C 133.214,400.215 136.214,402.549 139.5,404.5C 139.369,405.239 139.536,405.906 140,406.5C 152.035,418.368 163.869,430.368 175.5,442.5C 162.5,455.833 149.5,469.167 136.5,482.5C 116.217,472.212 97.8839,459.212 81.5,443.5C 82.2389,443.631 82.9056,443.464 83.5,443C 98.752,427.245 114.419,412.079 130.5,397.5 Z"/></g>
<g><path style="opacity:1" fill="#e69f1f" d="M 139.5,404.5 C 144.34,407.728 149.673,409.895 155.5,411C 186.832,411.5 218.165,411.667 249.5,411.5C 232.5,429.167 215.167,446.5 197.5,463.5C 190.167,456.5 182.833,449.5 175.5,442.5C 163.869,430.368 152.035,418.368 140,406.5C 139.536,405.906 139.369,405.239 139.5,404.5 Z"/></g>
<g><path style="opacity:1" fill="#eba420" d="M 249.5,411.5 C 266.167,411.5 282.833,411.5 299.5,411.5C 274.167,437.5 248.5,463.167 222.5,488.5C 213.833,480.5 205.5,472.167 197.5,463.5C 215.167,446.5 232.5,429.167 249.5,411.5 Z"/></g>
<g><path style="opacity:1" fill="#f0a621" d="M 356.5,410.5 C 323.167,444.167 289.833,477.833 256.5,511.5C 252.5,511.5 248.5,511.5 244.5,511.5C 237.167,503.833 229.833,496.167 222.5,488.5C 248.5,463.167 274.167,437.5 299.5,411.5C 318.527,411.782 337.527,411.449 356.5,410.5 Z"/></g>
<g><path style="opacity:0.993" fill="#fbb826" d="M 175.5,442.5 C 182.833,449.5 190.167,456.5 197.5,463.5C 205.5,472.167 213.833,480.5 222.5,488.5C 229.833,496.167 237.167,503.833 244.5,511.5C 240.5,511.5 236.5,511.5 232.5,511.5C 198.642,508.035 166.642,498.368 136.5,482.5C 149.5,469.167 162.5,455.833 175.5,442.5 Z"/></g>
</svg>
